<svg width="1174" height="197" viewBox="0 0 1174 197" fill="none" xmlns="http://www.w3.org/2000/svg">
<rect x="0.5" y="0.5" width="1173" height="196" rx="19.5" fill="white" stroke="#BFBFBF"/>
<path d="M114.08 79.16V72.8H125.16V102H118.04V79.16H114.08ZM129.839 87C129.839 82.4133 130.719 78.8 132.479 76.16C134.266 73.52 137.132 72.2 141.079 72.2C145.026 72.2 147.879 73.52 149.639 76.16C151.426 78.8 152.319 82.4133 152.319 87C152.319 91.64 151.426 95.28 149.639 97.92C147.879 100.56 145.026 101.88 141.079 101.88C137.132 101.88 134.266 100.56 132.479 97.92C130.719 95.28 129.839 91.64 129.839 87ZM145.599 87C145.599 84.3067 145.306 82.24 144.719 80.8C144.132 79.3333 142.919 78.6 141.079 78.6C139.239 78.6 138.026 79.3333 137.439 80.8C136.852 82.24 136.559 84.3067 136.559 87C136.559 88.8133 136.666 90.32 136.879 91.52C137.092 92.6933 137.519 93.6533 138.159 94.4C138.826 95.12 139.799 95.48 141.079 95.48C142.359 95.48 143.319 95.12 143.959 94.4C144.626 93.6533 145.066 92.6933 145.279 91.52C145.492 90.32 145.599 88.8133 145.599 87ZM155.933 87C155.933 82.4133 156.813 78.8 158.573 76.16C160.359 73.52 163.226 72.2 167.173 72.2C171.119 72.2 173.973 73.52 175.733 76.16C177.519 78.8 178.413 82.4133 178.413 87C178.413 91.64 177.519 95.28 175.733 97.92C173.973 100.56 171.119 101.88 167.173 101.88C163.226 101.88 160.359 100.56 158.573 97.92C156.813 95.28 155.933 91.64 155.933 87ZM171.693 87C171.693 84.3067 171.399 82.24 170.813 80.8C170.226 79.3333 169.013 78.6 167.173 78.6C165.333 78.6 164.119 79.3333 163.533 80.8C162.946 82.24 162.653 84.3067 162.653 87C162.653 88.8133 162.759 90.32 162.973 91.52C163.186 92.6933 163.613 93.6533 164.253 94.4C164.919 95.12 165.893 95.48 167.173 95.48C168.453 95.48 169.413 95.12 170.053 94.4C170.719 93.6533 171.159 92.6933 171.373 91.52C171.586 90.32 171.693 88.8133 171.693 87ZM202.987 91.08H196.027V98.2H189.547V91.08H182.587V84.96H189.547V77.8H196.027V84.96H202.987V91.08Z" fill="#2F2F2F"/>
<path d="M107.856 134.742H112.004V136H106.309V124.151H107.856V134.742ZM117.71 136.153C116.837 136.153 116.044 135.955 115.33 135.558C114.627 135.161 114.072 134.6 113.664 133.875C113.267 133.138 113.069 132.288 113.069 131.325C113.069 130.373 113.273 129.534 113.681 128.809C114.1 128.072 114.667 127.511 115.381 127.126C116.095 126.729 116.894 126.531 117.778 126.531C118.662 126.531 119.461 126.729 120.175 127.126C120.889 127.511 121.45 128.067 121.858 128.792C122.277 129.517 122.487 130.362 122.487 131.325C122.487 132.288 122.272 133.138 121.841 133.875C121.422 134.6 120.849 135.161 120.124 135.558C119.399 135.955 118.594 136.153 117.71 136.153ZM117.71 134.793C118.265 134.793 118.787 134.663 119.274 134.402C119.761 134.141 120.152 133.75 120.447 133.229C120.753 132.708 120.906 132.073 120.906 131.325C120.906 130.577 120.759 129.942 120.464 129.421C120.169 128.9 119.784 128.514 119.308 128.265C118.832 128.004 118.316 127.874 117.761 127.874C117.194 127.874 116.673 128.004 116.197 128.265C115.732 128.514 115.358 128.9 115.075 129.421C114.792 129.942 114.65 130.577 114.65 131.325C114.65 132.084 114.786 132.725 115.058 133.246C115.341 133.767 115.715 134.158 116.18 134.419C116.645 134.668 117.155 134.793 117.71 134.793ZM126.068 128.197C126.34 127.664 126.725 127.251 127.224 126.956C127.734 126.661 128.352 126.514 129.077 126.514V128.112H128.669C126.935 128.112 126.068 129.053 126.068 130.934V136H124.521V126.684H126.068V128.197ZM139.363 130.985C139.363 131.28 139.346 131.591 139.312 131.92H131.866C131.922 132.838 132.234 133.558 132.801 134.079C133.379 134.589 134.076 134.844 134.892 134.844C135.56 134.844 136.116 134.691 136.558 134.385C137.011 134.068 137.328 133.648 137.51 133.127H139.176C138.926 134.022 138.428 134.753 137.68 135.32C136.932 135.875 136.002 136.153 134.892 136.153C134.008 136.153 133.214 135.955 132.512 135.558C131.82 135.161 131.276 134.6 130.88 133.875C130.483 133.138 130.285 132.288 130.285 131.325C130.285 130.362 130.477 129.517 130.863 128.792C131.248 128.067 131.786 127.511 132.478 127.126C133.18 126.729 133.985 126.531 134.892 126.531C135.776 126.531 136.558 126.724 137.238 127.109C137.918 127.494 138.439 128.027 138.802 128.707C139.176 129.376 139.363 130.135 139.363 130.985ZM137.765 130.662C137.765 130.073 137.634 129.568 137.374 129.149C137.113 128.718 136.756 128.395 136.303 128.18C135.861 127.953 135.368 127.84 134.824 127.84C134.042 127.84 133.373 128.089 132.818 128.588C132.274 129.087 131.962 129.778 131.883 130.662H137.765ZM152.608 126.514C153.333 126.514 153.979 126.667 154.546 126.973C155.112 127.268 155.56 127.715 155.889 128.316C156.217 128.917 156.382 129.648 156.382 130.509V136H154.852V130.73C154.852 129.801 154.619 129.092 154.155 128.605C153.701 128.106 153.084 127.857 152.302 127.857C151.497 127.857 150.857 128.118 150.381 128.639C149.905 129.149 149.667 129.891 149.667 130.866V136H148.137V130.73C148.137 129.801 147.904 129.092 147.44 128.605C146.986 128.106 146.369 127.857 145.587 127.857C144.782 127.857 144.142 128.118 143.666 128.639C143.19 129.149 142.952 129.891 142.952 130.866V136H141.405V126.684H142.952V128.027C143.258 127.54 143.666 127.166 144.176 126.905C144.697 126.644 145.269 126.514 145.893 126.514C146.675 126.514 147.366 126.69 147.967 127.041C148.567 127.392 149.015 127.908 149.31 128.588C149.57 127.931 150.001 127.421 150.602 127.058C151.202 126.695 151.871 126.514 152.608 126.514ZM164.999 124.151V136H163.452V124.151H164.999ZM169.182 128.401C169.488 127.868 169.942 127.426 170.542 127.075C171.154 126.712 171.863 126.531 172.667 126.531C173.495 126.531 174.243 126.729 174.911 127.126C175.591 127.523 176.124 128.084 176.509 128.809C176.895 129.523 177.087 130.356 177.087 131.308C177.087 132.249 176.895 133.087 176.509 133.824C176.124 134.561 175.591 135.133 174.911 135.541C174.243 135.949 173.495 136.153 172.667 136.153C171.874 136.153 171.171 135.977 170.559 135.626C169.959 135.263 169.5 134.816 169.182 134.283V140.42H167.635V126.684H169.182V128.401ZM175.506 131.308C175.506 130.605 175.365 129.993 175.081 129.472C174.798 128.951 174.413 128.554 173.925 128.282C173.449 128.01 172.922 127.874 172.344 127.874C171.778 127.874 171.251 128.016 170.763 128.299C170.287 128.571 169.902 128.973 169.607 129.506C169.324 130.027 169.182 130.634 169.182 131.325C169.182 132.028 169.324 132.645 169.607 133.178C169.902 133.699 170.287 134.102 170.763 134.385C171.251 134.657 171.778 134.793 172.344 134.793C172.922 134.793 173.449 134.657 173.925 134.385C174.413 134.102 174.798 133.699 175.081 133.178C175.365 132.645 175.506 132.022 175.506 131.308ZM182.421 136.153C181.707 136.153 181.067 136.034 180.5 135.796C179.934 135.547 179.486 135.207 179.157 134.776C178.829 134.334 178.647 133.83 178.613 133.263H180.211C180.257 133.728 180.472 134.107 180.857 134.402C181.254 134.697 181.77 134.844 182.404 134.844C182.994 134.844 183.458 134.714 183.798 134.453C184.138 134.192 184.308 133.864 184.308 133.467C184.308 133.059 184.127 132.759 183.764 132.566C183.402 132.362 182.841 132.164 182.081 131.971C181.39 131.79 180.823 131.608 180.381 131.427C179.951 131.234 179.577 130.957 179.259 130.594C178.953 130.22 178.8 129.733 178.8 129.132C178.8 128.656 178.942 128.22 179.225 127.823C179.509 127.426 179.911 127.115 180.432 126.888C180.954 126.65 181.549 126.531 182.217 126.531C183.249 126.531 184.082 126.792 184.716 127.313C185.351 127.834 185.691 128.548 185.736 129.455H184.189C184.155 128.968 183.957 128.577 183.594 128.282C183.243 127.987 182.767 127.84 182.166 127.84C181.611 127.84 181.169 127.959 180.84 128.197C180.512 128.435 180.347 128.747 180.347 129.132C180.347 129.438 180.444 129.693 180.636 129.897C180.84 130.09 181.09 130.248 181.384 130.373C181.69 130.486 182.11 130.617 182.642 130.764C183.311 130.945 183.855 131.127 184.274 131.308C184.694 131.478 185.051 131.739 185.345 132.09C185.651 132.441 185.81 132.9 185.821 133.467C185.821 133.977 185.68 134.436 185.396 134.844C185.113 135.252 184.711 135.575 184.189 135.813C183.679 136.04 183.09 136.153 182.421 136.153ZM196.267 126.684V136H194.72V134.623C194.426 135.099 194.012 135.473 193.479 135.745C192.958 136.006 192.38 136.136 191.745 136.136C191.02 136.136 190.368 135.989 189.79 135.694C189.212 135.388 188.753 134.935 188.413 134.334C188.085 133.733 187.92 133.002 187.92 132.141V126.684H189.45V131.937C189.45 132.855 189.683 133.563 190.147 134.062C190.612 134.549 191.247 134.793 192.051 134.793C192.879 134.793 193.53 134.538 194.006 134.028C194.482 133.518 194.72 132.776 194.72 131.801V126.684H196.267ZM210.082 126.514C210.808 126.514 211.454 126.667 212.02 126.973C212.587 127.268 213.035 127.715 213.363 128.316C213.692 128.917 213.856 129.648 213.856 130.509V136H212.326V130.73C212.326 129.801 212.094 129.092 211.629 128.605C211.176 128.106 210.558 127.857 209.776 127.857C208.972 127.857 208.331 128.118 207.855 128.639C207.379 129.149 207.141 129.891 207.141 130.866V136H205.611V130.73C205.611 129.801 205.379 129.092 204.914 128.605C204.461 128.106 203.843 127.857 203.061 127.857C202.257 127.857 201.616 128.118 201.14 128.639C200.664 129.149 200.426 129.891 200.426 130.866V136H198.879V126.684H200.426V128.027C200.732 127.54 201.14 127.166 201.65 126.905C202.172 126.644 202.744 126.514 203.367 126.514C204.149 126.514 204.841 126.69 205.441 127.041C206.042 127.392 206.49 127.908 206.784 128.588C207.045 127.931 207.476 127.421 208.076 127.058C208.677 126.695 209.346 126.514 210.082 126.514Z" fill="#9C9C9C"/>
<path d="M400.08 79.16V72.8H411.16V102H404.04V79.16H400.08ZM436.399 78.76H423.919V84.28C424.452 83.6933 425.199 83.2133 426.159 82.84C427.119 82.4667 428.159 82.28 429.279 82.28C431.279 82.28 432.932 82.7333 434.239 83.64C435.572 84.5467 436.546 85.72 437.159 87.16C437.772 88.6 438.079 90.16 438.079 91.84C438.079 94.96 437.199 97.44 435.439 99.28C433.679 101.093 431.199 102 427.999 102C425.866 102 424.012 101.64 422.439 100.92C420.866 100.173 419.652 99.1467 418.799 97.84C417.946 96.5333 417.479 95.0267 417.399 93.32H424.079C424.239 94.1467 424.626 94.84 425.239 95.4C425.852 95.9333 426.692 96.2 427.759 96.2C429.012 96.2 429.946 95.8 430.559 95C431.172 94.2 431.479 93.1333 431.479 91.8C431.479 90.4933 431.159 89.4933 430.519 88.8C429.879 88.1067 428.946 87.76 427.719 87.76C426.812 87.76 426.066 87.9867 425.479 88.44C424.892 88.8667 424.506 89.44 424.319 90.16H417.719V72.76H436.399V78.76ZM441.855 87C441.855 82.4133 442.735 78.8 444.495 76.16C446.281 73.52 449.148 72.2 453.095 72.2C457.041 72.2 459.895 73.52 461.655 76.16C463.441 78.8 464.335 82.4133 464.335 87C464.335 91.64 463.441 95.28 461.655 97.92C459.895 100.56 457.041 101.88 453.095 101.88C449.148 101.88 446.281 100.56 444.495 97.92C442.735 95.28 441.855 91.64 441.855 87ZM457.615 87C457.615 84.3067 457.321 82.24 456.735 80.8C456.148 79.3333 454.935 78.6 453.095 78.6C451.255 78.6 450.041 79.3333 449.455 80.8C448.868 82.24 448.575 84.3067 448.575 87C448.575 88.8133 448.681 90.32 448.895 91.52C449.108 92.6933 449.535 93.6533 450.175 94.4C450.841 95.12 451.815 95.48 453.095 95.48C454.375 95.48 455.335 95.12 455.975 94.4C456.641 93.6533 457.081 92.6933 457.295 91.52C457.508 90.32 457.615 88.8133 457.615 87ZM488.908 91.08H481.948V98.2H475.468V91.08H468.508V84.96H475.468V77.8H481.948V84.96H488.908V91.08Z" fill="#2F2F2F"/>
<path d="M393.856 134.742H398.004V136H392.309V124.151H393.856V134.742ZM403.71 136.153C402.837 136.153 402.044 135.955 401.33 135.558C400.627 135.161 400.072 134.6 399.664 133.875C399.267 133.138 399.069 132.288 399.069 131.325C399.069 130.373 399.273 129.534 399.681 128.809C400.1 128.072 400.667 127.511 401.381 127.126C402.095 126.729 402.894 126.531 403.778 126.531C404.662 126.531 405.461 126.729 406.175 127.126C406.889 127.511 407.45 128.067 407.858 128.792C408.277 129.517 408.487 130.362 408.487 131.325C408.487 132.288 408.272 133.138 407.841 133.875C407.422 134.6 406.849 135.161 406.124 135.558C405.399 135.955 404.594 136.153 403.71 136.153ZM403.71 134.793C404.265 134.793 404.787 134.663 405.274 134.402C405.761 134.141 406.152 133.75 406.447 133.229C406.753 132.708 406.906 132.073 406.906 131.325C406.906 130.577 406.759 129.942 406.464 129.421C406.169 128.9 405.784 128.514 405.308 128.265C404.832 128.004 404.316 127.874 403.761 127.874C403.194 127.874 402.673 128.004 402.197 128.265C401.732 128.514 401.358 128.9 401.075 129.421C400.792 129.942 400.65 130.577 400.65 131.325C400.65 132.084 400.786 132.725 401.058 133.246C401.341 133.767 401.715 134.158 402.18 134.419C402.645 134.668 403.155 134.793 403.71 134.793ZM412.068 128.197C412.34 127.664 412.725 127.251 413.224 126.956C413.734 126.661 414.352 126.514 415.077 126.514V128.112H414.669C412.935 128.112 412.068 129.053 412.068 130.934V136H410.521V126.684H412.068V128.197ZM425.363 130.985C425.363 131.28 425.346 131.591 425.312 131.92H417.866C417.922 132.838 418.234 133.558 418.801 134.079C419.379 134.589 420.076 134.844 420.892 134.844C421.56 134.844 422.116 134.691 422.558 134.385C423.011 134.068 423.328 133.648 423.51 133.127H425.176C424.926 134.022 424.428 134.753 423.68 135.32C422.932 135.875 422.002 136.153 420.892 136.153C420.008 136.153 419.214 135.955 418.512 135.558C417.82 135.161 417.276 134.6 416.88 133.875C416.483 133.138 416.285 132.288 416.285 131.325C416.285 130.362 416.477 129.517 416.863 128.792C417.248 128.067 417.786 127.511 418.478 127.126C419.18 126.729 419.985 126.531 420.892 126.531C421.776 126.531 422.558 126.724 423.238 127.109C423.918 127.494 424.439 128.027 424.802 128.707C425.176 129.376 425.363 130.135 425.363 130.985ZM423.765 130.662C423.765 130.073 423.634 129.568 423.374 129.149C423.113 128.718 422.756 128.395 422.303 128.18C421.861 127.953 421.368 127.84 420.824 127.84C420.042 127.84 419.373 128.089 418.818 128.588C418.274 129.087 417.962 129.778 417.883 130.662H423.765ZM438.608 126.514C439.333 126.514 439.979 126.667 440.546 126.973C441.112 127.268 441.56 127.715 441.889 128.316C442.217 128.917 442.382 129.648 442.382 130.509V136H440.852V130.73C440.852 129.801 440.619 129.092 440.155 128.605C439.701 128.106 439.084 127.857 438.302 127.857C437.497 127.857 436.857 128.118 436.381 128.639C435.905 129.149 435.667 129.891 435.667 130.866V136H434.137V130.73C434.137 129.801 433.904 129.092 433.44 128.605C432.986 128.106 432.369 127.857 431.587 127.857C430.782 127.857 430.142 128.118 429.666 128.639C429.19 129.149 428.952 129.891 428.952 130.866V136H427.405V126.684H428.952V128.027C429.258 127.54 429.666 127.166 430.176 126.905C430.697 126.644 431.269 126.514 431.893 126.514C432.675 126.514 433.366 126.69 433.967 127.041C434.567 127.392 435.015 127.908 435.31 128.588C435.57 127.931 436.001 127.421 436.602 127.058C437.202 126.695 437.871 126.514 438.608 126.514ZM450.999 124.151V136H449.452V124.151H450.999ZM455.182 128.401C455.488 127.868 455.942 127.426 456.542 127.075C457.154 126.712 457.863 126.531 458.667 126.531C459.495 126.531 460.243 126.729 460.911 127.126C461.591 127.523 462.124 128.084 462.509 128.809C462.895 129.523 463.087 130.356 463.087 131.308C463.087 132.249 462.895 133.087 462.509 133.824C462.124 134.561 461.591 135.133 460.911 135.541C460.243 135.949 459.495 136.153 458.667 136.153C457.874 136.153 457.171 135.977 456.559 135.626C455.959 135.263 455.5 134.816 455.182 134.283V140.42H453.635V126.684H455.182V128.401ZM461.506 131.308C461.506 130.605 461.365 129.993 461.081 129.472C460.798 128.951 460.413 128.554 459.925 128.282C459.449 128.01 458.922 127.874 458.344 127.874C457.778 127.874 457.251 128.016 456.763 128.299C456.287 128.571 455.902 128.973 455.607 129.506C455.324 130.027 455.182 130.634 455.182 131.325C455.182 132.028 455.324 132.645 455.607 133.178C455.902 133.699 456.287 134.102 456.763 134.385C457.251 134.657 457.778 134.793 458.344 134.793C458.922 134.793 459.449 134.657 459.925 134.385C460.413 134.102 460.798 133.699 461.081 133.178C461.365 132.645 461.506 132.022 461.506 131.308ZM468.421 136.153C467.707 136.153 467.067 136.034 466.5 135.796C465.934 135.547 465.486 135.207 465.157 134.776C464.829 134.334 464.647 133.83 464.613 133.263H466.211C466.257 133.728 466.472 134.107 466.857 134.402C467.254 134.697 467.77 134.844 468.404 134.844C468.994 134.844 469.458 134.714 469.798 134.453C470.138 134.192 470.308 133.864 470.308 133.467C470.308 133.059 470.127 132.759 469.764 132.566C469.402 132.362 468.841 132.164 468.081 131.971C467.39 131.79 466.823 131.608 466.381 131.427C465.951 131.234 465.577 130.957 465.259 130.594C464.953 130.22 464.8 129.733 464.8 129.132C464.8 128.656 464.942 128.22 465.225 127.823C465.509 127.426 465.911 127.115 466.432 126.888C466.954 126.65 467.549 126.531 468.217 126.531C469.249 126.531 470.082 126.792 470.716 127.313C471.351 127.834 471.691 128.548 471.736 129.455H470.189C470.155 128.968 469.957 128.577 469.594 128.282C469.243 127.987 468.767 127.84 468.166 127.84C467.611 127.84 467.169 127.959 466.84 128.197C466.512 128.435 466.347 128.747 466.347 129.132C466.347 129.438 466.444 129.693 466.636 129.897C466.84 130.09 467.09 130.248 467.384 130.373C467.69 130.486 468.11 130.617 468.642 130.764C469.311 130.945 469.855 131.127 470.274 131.308C470.694 131.478 471.051 131.739 471.345 132.09C471.651 132.441 471.81 132.9 471.821 133.467C471.821 133.977 471.68 134.436 471.396 134.844C471.113 135.252 470.711 135.575 470.189 135.813C469.679 136.04 469.09 136.153 468.421 136.153ZM482.267 126.684V136H480.72V134.623C480.426 135.099 480.012 135.473 479.479 135.745C478.958 136.006 478.38 136.136 477.745 136.136C477.02 136.136 476.368 135.989 475.79 135.694C475.212 135.388 474.753 134.935 474.413 134.334C474.085 133.733 473.92 133.002 473.92 132.141V126.684H475.45V131.937C475.45 132.855 475.683 133.563 476.147 134.062C476.612 134.549 477.247 134.793 478.051 134.793C478.879 134.793 479.53 134.538 480.006 134.028C480.482 133.518 480.72 132.776 480.72 131.801V126.684H482.267ZM496.082 126.514C496.808 126.514 497.454 126.667 498.02 126.973C498.587 127.268 499.035 127.715 499.363 128.316C499.692 128.917 499.856 129.648 499.856 130.509V136H498.326V130.73C498.326 129.801 498.094 129.092 497.629 128.605C497.176 128.106 496.558 127.857 495.776 127.857C494.972 127.857 494.331 128.118 493.855 128.639C493.379 129.149 493.141 129.891 493.141 130.866V136H491.611V130.73C491.611 129.801 491.379 129.092 490.914 128.605C490.461 128.106 489.843 127.857 489.061 127.857C488.257 127.857 487.616 128.118 487.14 128.639C486.664 129.149 486.426 129.891 486.426 130.866V136H484.879V126.684H486.426V128.027C486.732 127.54 487.14 127.166 487.65 126.905C488.172 126.644 488.744 126.514 489.367 126.514C490.149 126.514 490.841 126.69 491.441 127.041C492.042 127.392 492.49 127.908 492.784 128.588C493.045 127.931 493.476 127.421 494.076 127.058C494.677 126.695 495.346 126.514 496.082 126.514Z" fill="#9C9C9C"/>
<path d="M704.04 81.04C704.147 78.1867 705.08 75.9867 706.84 74.44C708.6 72.8933 710.987 72.12 714 72.12C716 72.12 717.707 72.4667 719.12 73.16C720.56 73.8533 721.64 74.8 722.36 76C723.107 77.2 723.48 78.5467 723.48 80.04C723.48 81.8 723.04 83.24 722.16 84.36C721.28 85.4533 720.253 86.2 719.08 86.6V86.76C720.6 87.2667 721.8 88.1067 722.68 89.28C723.56 90.4533 724 91.96 724 93.8C724 95.4533 723.613 96.92 722.84 98.2C722.093 99.4533 720.987 100.44 719.52 101.16C718.08 101.88 716.36 102.24 714.36 102.24C711.16 102.24 708.6 101.453 706.68 99.88C704.787 98.3067 703.787 95.9333 703.68 92.76H710.32C710.347 93.9333 710.68 94.8667 711.32 95.56C711.96 96.2267 712.893 96.56 714.12 96.56C715.16 96.56 715.96 96.2667 716.52 95.68C717.107 95.0667 717.4 94.2667 717.4 93.28C717.4 92 716.987 91.08 716.16 90.52C715.36 89.9333 714.067 89.64 712.28 89.64H711V84.08H712.28C713.64 84.08 714.733 83.8533 715.56 83.4C716.413 82.92 716.84 82.08 716.84 80.88C716.84 79.92 716.573 79.1733 716.04 78.64C715.507 78.1067 714.773 77.84 713.84 77.84C712.827 77.84 712.067 78.1467 711.56 78.76C711.08 79.3733 710.8 80.1333 710.72 81.04H704.04ZM728.019 87C728.019 82.4133 728.899 78.8 730.659 76.16C732.445 73.52 735.312 72.2 739.259 72.2C743.205 72.2 746.059 73.52 747.819 76.16C749.605 78.8 750.499 82.4133 750.499 87C750.499 91.64 749.605 95.28 747.819 97.92C746.059 100.56 743.205 101.88 739.259 101.88C735.312 101.88 732.445 100.56 730.659 97.92C728.899 95.28 728.019 91.64 728.019 87ZM743.779 87C743.779 84.3067 743.485 82.24 742.899 80.8C742.312 79.3333 741.099 78.6 739.259 78.6C737.419 78.6 736.205 79.3333 735.619 80.8C735.032 82.24 734.739 84.3067 734.739 87C734.739 88.8133 734.845 90.32 735.059 91.52C735.272 92.6933 735.699 93.6533 736.339 94.4C737.005 95.12 737.979 95.48 739.259 95.48C740.539 95.48 741.499 95.12 742.139 94.4C742.805 93.6533 743.245 92.6933 743.459 91.52C743.672 90.32 743.779 88.8133 743.779 87ZM775.073 91.08H768.113V98.2H761.633V91.08H754.673V84.96H761.633V77.8H768.113V84.96H775.073V91.08Z" fill="#2F2F2F"/>
<path d="M679.856 134.742H684.004V136H678.309V124.151H679.856V134.742ZM689.71 136.153C688.837 136.153 688.044 135.955 687.33 135.558C686.627 135.161 686.072 134.6 685.664 133.875C685.267 133.138 685.069 132.288 685.069 131.325C685.069 130.373 685.273 129.534 685.681 128.809C686.1 128.072 686.667 127.511 687.381 127.126C688.095 126.729 688.894 126.531 689.778 126.531C690.662 126.531 691.461 126.729 692.175 127.126C692.889 127.511 693.45 128.067 693.858 128.792C694.277 129.517 694.487 130.362 694.487 131.325C694.487 132.288 694.272 133.138 693.841 133.875C693.422 134.6 692.849 135.161 692.124 135.558C691.399 135.955 690.594 136.153 689.71 136.153ZM689.71 134.793C690.265 134.793 690.787 134.663 691.274 134.402C691.761 134.141 692.152 133.75 692.447 133.229C692.753 132.708 692.906 132.073 692.906 131.325C692.906 130.577 692.759 129.942 692.464 129.421C692.169 128.9 691.784 128.514 691.308 128.265C690.832 128.004 690.316 127.874 689.761 127.874C689.194 127.874 688.673 128.004 688.197 128.265C687.732 128.514 687.358 128.9 687.075 129.421C686.792 129.942 686.65 130.577 686.65 131.325C686.65 132.084 686.786 132.725 687.058 133.246C687.341 133.767 687.715 134.158 688.18 134.419C688.645 134.668 689.155 134.793 689.71 134.793ZM698.068 128.197C698.34 127.664 698.725 127.251 699.224 126.956C699.734 126.661 700.352 126.514 701.077 126.514V128.112H700.669C698.935 128.112 698.068 129.053 698.068 130.934V136H696.521V126.684H698.068V128.197ZM711.363 130.985C711.363 131.28 711.346 131.591 711.312 131.92H703.866C703.922 132.838 704.234 133.558 704.801 134.079C705.379 134.589 706.076 134.844 706.892 134.844C707.56 134.844 708.116 134.691 708.558 134.385C709.011 134.068 709.328 133.648 709.51 133.127H711.176C710.926 134.022 710.428 134.753 709.68 135.32C708.932 135.875 708.002 136.153 706.892 136.153C706.008 136.153 705.214 135.955 704.512 135.558C703.82 135.161 703.276 134.6 702.88 133.875C702.483 133.138 702.285 132.288 702.285 131.325C702.285 130.362 702.477 129.517 702.863 128.792C703.248 128.067 703.786 127.511 704.478 127.126C705.18 126.729 705.985 126.531 706.892 126.531C707.776 126.531 708.558 126.724 709.238 127.109C709.918 127.494 710.439 128.027 710.802 128.707C711.176 129.376 711.363 130.135 711.363 130.985ZM709.765 130.662C709.765 130.073 709.634 129.568 709.374 129.149C709.113 128.718 708.756 128.395 708.303 128.18C707.861 127.953 707.368 127.84 706.824 127.84C706.042 127.84 705.373 128.089 704.818 128.588C704.274 129.087 703.962 129.778 703.883 130.662H709.765ZM724.608 126.514C725.333 126.514 725.979 126.667 726.546 126.973C727.112 127.268 727.56 127.715 727.889 128.316C728.217 128.917 728.382 129.648 728.382 130.509V136H726.852V130.73C726.852 129.801 726.619 129.092 726.155 128.605C725.701 128.106 725.084 127.857 724.302 127.857C723.497 127.857 722.857 128.118 722.381 128.639C721.905 129.149 721.667 129.891 721.667 130.866V136H720.137V130.73C720.137 129.801 719.904 129.092 719.44 128.605C718.986 128.106 718.369 127.857 717.587 127.857C716.782 127.857 716.142 128.118 715.666 128.639C715.19 129.149 714.952 129.891 714.952 130.866V136H713.405V126.684H714.952V128.027C715.258 127.54 715.666 127.166 716.176 126.905C716.697 126.644 717.269 126.514 717.893 126.514C718.675 126.514 719.366 126.69 719.967 127.041C720.567 127.392 721.015 127.908 721.31 128.588C721.57 127.931 722.001 127.421 722.602 127.058C723.202 126.695 723.871 126.514 724.608 126.514ZM736.999 124.151V136H735.452V124.151H736.999ZM741.182 128.401C741.488 127.868 741.942 127.426 742.542 127.075C743.154 126.712 743.863 126.531 744.667 126.531C745.495 126.531 746.243 126.729 746.911 127.126C747.591 127.523 748.124 128.084 748.509 128.809C748.895 129.523 749.087 130.356 749.087 131.308C749.087 132.249 748.895 133.087 748.509 133.824C748.124 134.561 747.591 135.133 746.911 135.541C746.243 135.949 745.495 136.153 744.667 136.153C743.874 136.153 743.171 135.977 742.559 135.626C741.959 135.263 741.5 134.816 741.182 134.283V140.42H739.635V126.684H741.182V128.401ZM747.506 131.308C747.506 130.605 747.365 129.993 747.081 129.472C746.798 128.951 746.413 128.554 745.925 128.282C745.449 128.01 744.922 127.874 744.344 127.874C743.778 127.874 743.251 128.016 742.763 128.299C742.287 128.571 741.902 128.973 741.607 129.506C741.324 130.027 741.182 130.634 741.182 131.325C741.182 132.028 741.324 132.645 741.607 133.178C741.902 133.699 742.287 134.102 742.763 134.385C743.251 134.657 743.778 134.793 744.344 134.793C744.922 134.793 745.449 134.657 745.925 134.385C746.413 134.102 746.798 133.699 747.081 133.178C747.365 132.645 747.506 132.022 747.506 131.308ZM754.421 136.153C753.707 136.153 753.067 136.034 752.5 135.796C751.934 135.547 751.486 135.207 751.157 134.776C750.829 134.334 750.647 133.83 750.613 133.263H752.211C752.257 133.728 752.472 134.107 752.857 134.402C753.254 134.697 753.77 134.844 754.404 134.844C754.994 134.844 755.458 134.714 755.798 134.453C756.138 134.192 756.308 133.864 756.308 133.467C756.308 133.059 756.127 132.759 755.764 132.566C755.402 132.362 754.841 132.164 754.081 131.971C753.39 131.79 752.823 131.608 752.381 131.427C751.951 131.234 751.577 130.957 751.259 130.594C750.953 130.22 750.8 129.733 750.8 129.132C750.8 128.656 750.942 128.22 751.225 127.823C751.509 127.426 751.911 127.115 752.432 126.888C752.954 126.65 753.549 126.531 754.217 126.531C755.249 126.531 756.082 126.792 756.716 127.313C757.351 127.834 757.691 128.548 757.736 129.455H756.189C756.155 128.968 755.957 128.577 755.594 128.282C755.243 127.987 754.767 127.84 754.166 127.84C753.611 127.84 753.169 127.959 752.84 128.197C752.512 128.435 752.347 128.747 752.347 129.132C752.347 129.438 752.444 129.693 752.636 129.897C752.84 130.09 753.09 130.248 753.384 130.373C753.69 130.486 754.11 130.617 754.642 130.764C755.311 130.945 755.855 131.127 756.274 131.308C756.694 131.478 757.051 131.739 757.345 132.09C757.651 132.441 757.81 132.9 757.821 133.467C757.821 133.977 757.68 134.436 757.396 134.844C757.113 135.252 756.711 135.575 756.189 135.813C755.679 136.04 755.09 136.153 754.421 136.153ZM768.267 126.684V136H766.72V134.623C766.426 135.099 766.012 135.473 765.479 135.745C764.958 136.006 764.38 136.136 763.745 136.136C763.02 136.136 762.368 135.989 761.79 135.694C761.212 135.388 760.753 134.935 760.413 134.334C760.085 133.733 759.92 133.002 759.92 132.141V126.684H761.45V131.937C761.45 132.855 761.683 133.563 762.147 134.062C762.612 134.549 763.247 134.793 764.051 134.793C764.879 134.793 765.53 134.538 766.006 134.028C766.482 133.518 766.72 132.776 766.72 131.801V126.684H768.267ZM782.082 126.514C782.808 126.514 783.454 126.667 784.02 126.973C784.587 127.268 785.035 127.715 785.363 128.316C785.692 128.917 785.856 129.648 785.856 130.509V136H784.326V130.73C784.326 129.801 784.094 129.092 783.629 128.605C783.176 128.106 782.558 127.857 781.776 127.857C780.972 127.857 780.331 128.118 779.855 128.639C779.379 129.149 779.141 129.891 779.141 130.866V136H777.611V130.73C777.611 129.801 777.379 129.092 776.914 128.605C776.461 128.106 775.843 127.857 775.061 127.857C774.257 127.857 773.616 128.118 773.14 128.639C772.664 129.149 772.426 129.891 772.426 130.866V136H770.879V126.684H772.426V128.027C772.732 127.54 773.14 127.166 773.65 126.905C774.172 126.644 774.744 126.514 775.367 126.514C776.149 126.514 776.841 126.69 777.441 127.041C778.042 127.392 778.49 127.908 778.784 128.588C779.045 127.931 779.476 127.421 780.076 127.058C780.677 126.695 781.346 126.514 782.082 126.514Z" fill="#9C9C9C"/>
<path d="M1002.63 77.92L992.591 102H985.591L995.751 78.68H983.311V72.84H1002.63V77.92ZM1005.4 87C1005.4 82.4133 1006.28 78.8 1008.04 76.16C1009.82 73.52 1012.69 72.2 1016.64 72.2C1020.58 72.2 1023.44 73.52 1025.2 76.16C1026.98 78.8 1027.88 82.4133 1027.88 87C1027.88 91.64 1026.98 95.28 1025.2 97.92C1023.44 100.56 1020.58 101.88 1016.64 101.88C1012.69 101.88 1009.82 100.56 1008.04 97.92C1006.28 95.28 1005.4 91.64 1005.4 87ZM1021.16 87C1021.16 84.3067 1020.86 82.24 1020.28 80.8C1019.69 79.3333 1018.48 78.6 1016.64 78.6C1014.8 78.6 1013.58 79.3333 1013 80.8C1012.41 82.24 1012.12 84.3067 1012.12 87C1012.12 88.8133 1012.22 90.32 1012.44 91.52C1012.65 92.6933 1013.08 93.6533 1013.72 94.4C1014.38 95.12 1015.36 95.48 1016.64 95.48C1017.92 95.48 1018.88 95.12 1019.52 94.4C1020.18 93.6533 1020.62 92.6933 1020.84 91.52C1021.05 90.32 1021.16 88.8133 1021.16 87ZM1052.45 91.08H1045.49V98.2H1039.01V91.08H1032.05V84.96H1039.01V77.8H1045.49V84.96H1052.45V91.08Z" fill="#2F2F2F"/>
<path d="M965.856 134.742H970.004V136H964.309V124.151H965.856V134.742ZM975.71 136.153C974.837 136.153 974.044 135.955 973.33 135.558C972.627 135.161 972.072 134.6 971.664 133.875C971.267 133.138 971.069 132.288 971.069 131.325C971.069 130.373 971.273 129.534 971.681 128.809C972.1 128.072 972.667 127.511 973.381 127.126C974.095 126.729 974.894 126.531 975.778 126.531C976.662 126.531 977.461 126.729 978.175 127.126C978.889 127.511 979.45 128.067 979.858 128.792C980.277 129.517 980.487 130.362 980.487 131.325C980.487 132.288 980.272 133.138 979.841 133.875C979.422 134.6 978.849 135.161 978.124 135.558C977.399 135.955 976.594 136.153 975.71 136.153ZM975.71 134.793C976.265 134.793 976.787 134.663 977.274 134.402C977.761 134.141 978.152 133.75 978.447 133.229C978.753 132.708 978.906 132.073 978.906 131.325C978.906 130.577 978.759 129.942 978.464 129.421C978.169 128.9 977.784 128.514 977.308 128.265C976.832 128.004 976.316 127.874 975.761 127.874C975.194 127.874 974.673 128.004 974.197 128.265C973.732 128.514 973.358 128.9 973.075 129.421C972.792 129.942 972.65 130.577 972.65 131.325C972.65 132.084 972.786 132.725 973.058 133.246C973.341 133.767 973.715 134.158 974.18 134.419C974.645 134.668 975.155 134.793 975.71 134.793ZM984.068 128.197C984.34 127.664 984.725 127.251 985.224 126.956C985.734 126.661 986.352 126.514 987.077 126.514V128.112H986.669C984.935 128.112 984.068 129.053 984.068 130.934V136H982.521V126.684H984.068V128.197ZM997.363 130.985C997.363 131.28 997.346 131.591 997.312 131.92H989.866C989.922 132.838 990.234 133.558 990.801 134.079C991.379 134.589 992.076 134.844 992.892 134.844C993.56 134.844 994.116 134.691 994.558 134.385C995.011 134.068 995.328 133.648 995.51 133.127H997.176C996.926 134.022 996.428 134.753 995.68 135.32C994.932 135.875 994.002 136.153 992.892 136.153C992.008 136.153 991.214 135.955 990.512 135.558C989.82 135.161 989.276 134.6 988.88 133.875C988.483 133.138 988.285 132.288 988.285 131.325C988.285 130.362 988.477 129.517 988.863 128.792C989.248 128.067 989.786 127.511 990.478 127.126C991.18 126.729 991.985 126.531 992.892 126.531C993.776 126.531 994.558 126.724 995.238 127.109C995.918 127.494 996.439 128.027 996.802 128.707C997.176 129.376 997.363 130.135 997.363 130.985ZM995.765 130.662C995.765 130.073 995.634 129.568 995.374 129.149C995.113 128.718 994.756 128.395 994.303 128.18C993.861 127.953 993.368 127.84 992.824 127.84C992.042 127.84 991.373 128.089 990.818 128.588C990.274 129.087 989.962 129.778 989.883 130.662H995.765ZM1010.61 126.514C1011.33 126.514 1011.98 126.667 1012.55 126.973C1013.11 127.268 1013.56 127.715 1013.89 128.316C1014.22 128.917 1014.38 129.648 1014.38 130.509V136H1012.85V130.73C1012.85 129.801 1012.62 129.092 1012.15 128.605C1011.7 128.106 1011.08 127.857 1010.3 127.857C1009.5 127.857 1008.86 128.118 1008.38 128.639C1007.9 129.149 1007.67 129.891 1007.67 130.866V136H1006.14V130.73C1006.14 129.801 1005.9 129.092 1005.44 128.605C1004.99 128.106 1004.37 127.857 1003.59 127.857C1002.78 127.857 1002.14 128.118 1001.67 128.639C1001.19 129.149 1000.95 129.891 1000.95 130.866V136H999.405V126.684H1000.95V128.027C1001.26 127.54 1001.67 127.166 1002.18 126.905C1002.7 126.644 1003.27 126.514 1003.89 126.514C1004.67 126.514 1005.37 126.69 1005.97 127.041C1006.57 127.392 1007.02 127.908 1007.31 128.588C1007.57 127.931 1008 127.421 1008.6 127.058C1009.2 126.695 1009.87 126.514 1010.61 126.514ZM1023 124.151V136H1021.45V124.151H1023ZM1027.18 128.401C1027.49 127.868 1027.94 127.426 1028.54 127.075C1029.15 126.712 1029.86 126.531 1030.67 126.531C1031.49 126.531 1032.24 126.729 1032.91 127.126C1033.59 127.523 1034.12 128.084 1034.51 128.809C1034.89 129.523 1035.09 130.356 1035.09 131.308C1035.09 132.249 1034.89 133.087 1034.51 133.824C1034.12 134.561 1033.59 135.133 1032.91 135.541C1032.24 135.949 1031.49 136.153 1030.67 136.153C1029.87 136.153 1029.17 135.977 1028.56 135.626C1027.96 135.263 1027.5 134.816 1027.18 134.283V140.42H1025.64V126.684H1027.18V128.401ZM1033.51 131.308C1033.51 130.605 1033.36 129.993 1033.08 129.472C1032.8 128.951 1032.41 128.554 1031.93 128.282C1031.45 128.01 1030.92 127.874 1030.34 127.874C1029.78 127.874 1029.25 128.016 1028.76 128.299C1028.29 128.571 1027.9 128.973 1027.61 129.506C1027.32 130.027 1027.18 130.634 1027.18 131.325C1027.18 132.028 1027.32 132.645 1027.61 133.178C1027.9 133.699 1028.29 134.102 1028.76 134.385C1029.25 134.657 1029.78 134.793 1030.34 134.793C1030.92 134.793 1031.45 134.657 1031.93 134.385C1032.41 134.102 1032.8 133.699 1033.08 133.178C1033.36 132.645 1033.51 132.022 1033.51 131.308ZM1040.42 136.153C1039.71 136.153 1039.07 136.034 1038.5 135.796C1037.93 135.547 1037.49 135.207 1037.16 134.776C1036.83 134.334 1036.65 133.83 1036.61 133.263H1038.21C1038.26 133.728 1038.47 134.107 1038.86 134.402C1039.25 134.697 1039.77 134.844 1040.4 134.844C1040.99 134.844 1041.46 134.714 1041.8 134.453C1042.14 134.192 1042.31 133.864 1042.31 133.467C1042.31 133.059 1042.13 132.759 1041.76 132.566C1041.4 132.362 1040.84 132.164 1040.08 131.971C1039.39 131.79 1038.82 131.608 1038.38 131.427C1037.95 131.234 1037.58 130.957 1037.26 130.594C1036.95 130.22 1036.8 129.733 1036.8 129.132C1036.8 128.656 1036.94 128.22 1037.23 127.823C1037.51 127.426 1037.91 127.115 1038.43 126.888C1038.95 126.65 1039.55 126.531 1040.22 126.531C1041.25 126.531 1042.08 126.792 1042.72 127.313C1043.35 127.834 1043.69 128.548 1043.74 129.455H1042.19C1042.16 128.968 1041.96 128.577 1041.59 128.282C1041.24 127.987 1040.77 127.84 1040.17 127.84C1039.61 127.84 1039.17 127.959 1038.84 128.197C1038.51 128.435 1038.35 128.747 1038.35 129.132C1038.35 129.438 1038.44 129.693 1038.64 129.897C1038.84 130.09 1039.09 130.248 1039.38 130.373C1039.69 130.486 1040.11 130.617 1040.64 130.764C1041.31 130.945 1041.86 131.127 1042.27 131.308C1042.69 131.478 1043.05 131.739 1043.35 132.09C1043.65 132.441 1043.81 132.9 1043.82 133.467C1043.82 133.977 1043.68 134.436 1043.4 134.844C1043.11 135.252 1042.71 135.575 1042.19 135.813C1041.68 136.04 1041.09 136.153 1040.42 136.153ZM1054.27 126.684V136H1052.72V134.623C1052.43 135.099 1052.01 135.473 1051.48 135.745C1050.96 136.006 1050.38 136.136 1049.75 136.136C1049.02 136.136 1048.37 135.989 1047.79 135.694C1047.21 135.388 1046.75 134.935 1046.41 134.334C1046.08 133.733 1045.92 133.002 1045.92 132.141V126.684H1047.45V131.937C1047.45 132.855 1047.68 133.563 1048.15 134.062C1048.61 134.549 1049.25 134.793 1050.05 134.793C1050.88 134.793 1051.53 134.538 1052.01 134.028C1052.48 133.518 1052.72 132.776 1052.72 131.801V126.684H1054.27ZM1068.08 126.514C1068.81 126.514 1069.45 126.667 1070.02 126.973C1070.59 127.268 1071.03 127.715 1071.36 128.316C1071.69 128.917 1071.86 129.648 1071.86 130.509V136H1070.33V130.73C1070.33 129.801 1070.09 129.092 1069.63 128.605C1069.18 128.106 1068.56 127.857 1067.78 127.857C1066.97 127.857 1066.33 128.118 1065.86 128.639C1065.38 129.149 1065.14 129.891 1065.14 130.866V136H1063.61V130.73C1063.61 129.801 1063.38 129.092 1062.91 128.605C1062.46 128.106 1061.84 127.857 1061.06 127.857C1060.26 127.857 1059.62 128.118 1059.14 128.639C1058.66 129.149 1058.43 129.891 1058.43 130.866V136H1056.88V126.684H1058.43V128.027C1058.73 127.54 1059.14 127.166 1059.65 126.905C1060.17 126.644 1060.74 126.514 1061.37 126.514C1062.15 126.514 1062.84 126.69 1063.44 127.041C1064.04 127.392 1064.49 127.908 1064.78 128.588C1065.04 127.931 1065.48 127.421 1066.08 127.058C1066.68 126.695 1067.35 126.514 1068.08 126.514Z" fill="#9C9C9C"/>
<circle cx="300" cy="102" r="9" fill="#FF9A9A"/>
<circle cx="599" cy="102" r="9" fill="#9AFFC2"/>
<circle cx="889" cy="102" r="9" fill="#E59AFF"/>
</svg>
